<svg width="40" height="40" viewBox="0 0 40 40" fill="none" xmlns="http://www.w3.org/2000/svg">
  <!-- Background gradient circle -->
  <defs>
    <linearGradient id="bgGradient" x1="0%" y1="0%" x2="100%" y2="100%">
      <stop offset="0%" style="stop-color:#667eea;stop-opacity:1" />
      <stop offset="100%" style="stop-color:#764ba2;stop-opacity:1" />
    </linearGradient>
    <linearGradient id="dogGradient" x1="0%" y1="0%" x2="100%" y2="100%">
      <stop offset="0%" style="stop-color:#4f46e5;stop-opacity:1" />
      <stop offset="100%" style="stop-color:#7c3aed;stop-opacity:1" />
    </linearGradient>
  </defs>
  
  <!-- Background circle -->
  <circle cx="20" cy="20" r="20" fill="url(#bgGradient)"/>
  
  <!-- Dog head shape -->
  <ellipse cx="20" cy="22" rx="12" ry="10" fill="white"/>
  
  <!-- Dog ears -->
  <ellipse cx="12" cy="16" rx="3" ry="5" fill="url(#dogGradient)" transform="rotate(-25 12 16)"/>
  <ellipse cx="28" cy="16" rx="3" ry="5" fill="url(#dogGradient)" transform="rotate(25 28 16)"/>
  
  <!-- Inner ears -->
  <ellipse cx="13" cy="17" rx="1.5" ry="3" fill="#f8fafc" transform="rotate(-25 13 17)"/>
  <ellipse cx="27" cy="17" rx="1.5" ry="3" fill="#f8fafc" transform="rotate(25 27 17)"/>
  
  <!-- Dog eyes -->
  <circle cx="16" cy="20" r="1.5" fill="#1e293b"/>
  <circle cx="24" cy="20" r="1.5" fill="#1e293b"/>
  <circle cx="16.5" cy="19.5" r="0.5" fill="white"/>
  <circle cx="24.5" cy="19.5" r="0.5" fill="white"/>
  
  <!-- Dog nose -->
  <ellipse cx="20" cy="24" rx="1.5" ry="1" fill="#1e293b"/>
  
  <!-- Dog mouth -->
  <path d="M20 25.5 Q18 27 16 26.5 M20 25.5 Q22 27 24 26.5" stroke="#1e293b" stroke-width="1" fill="none" stroke-linecap="round"/>
  
  <!-- Dog spots -->
  <circle cx="14" cy="18" r="1" fill="url(#dogGradient)" opacity="0.3"/>
  <circle cx="26" cy="19" r="1.5" fill="url(#dogGradient)" opacity="0.3"/>
  
  <!-- Heart accent -->
  <path d="M20 8c-1.5-3-6-3-6 1s4.5 5.5 6 6.5c1.5-1 6-2.5 6-6.5s-4.5-4-6-1z" fill="#f472b6"/>
</svg>
