<svg width="40" height="40" viewBox="0 0 40 40" fill="none" xmlns="http://www.w3.org/2000/svg">
  <!-- Background circle -->
  <circle cx="20" cy="20" r="20" fill="#e67e22"/>
  
  <!-- Dog silhouette -->
  <path d="M8 24c0-2 1-3.5 2.5-4.5C11 18 12 17 13.5 16.5c1-0.3 2-0.5 3-0.5s2 0.2 3 0.5c1.5 0.5 2.5 1.5 3 2.5C24 19.5 25 21 25 23v1c0 1.5-0.5 3-1.5 4s-2.5 1.5-4 1.5h-6c-1.5 0-3-0.5-4-1.5S8 25.5 8 24z" fill="white"/>
  
  <!-- Dog face details -->
  <circle cx="15" cy="21" r="1" fill="#2c3e50"/>
  <circle cx="19" cy="21" r="1" fill="#2c3e50"/>
  
  <!-- Dog nose -->
  <ellipse cx="17" cy="23" rx="0.8" ry="0.5" fill="#2c3e50"/>
  
  <!-- Dog ears -->
  <ellipse cx="13" cy="18" rx="2" ry="3" fill="#d35400" transform="rotate(-20 13 18)"/>
  <ellipse cx="21" cy="18" rx="2" ry="3" fill="#d35400" transform="rotate(20 21 18)"/>
  
  <!-- Heart symbol -->
  <path d="M17 12c-1-2-4-2-4 0.5s3 3.5 4 4.5c1-1 4-2 4-4.5s-3-2.5-4-0.5z" fill="#e74c3c"/>
</svg>
